<svg xmlns="http://www.w3.org/2000/svg" viewBox="0 0 128 128" role="img" aria-labelledby="title desc">
  <title id="title">Sikchi Mind Care Clinic icon</title>
  <desc id="desc">A calm pastel monogram with a protective leaf and mind care mark.</desc>
  <rect width="128" height="128" rx="30" fill="#EEF7F1"/>
  <rect x="7" y="7" width="114" height="114" rx="25" fill="none" stroke="#BFD5CA" stroke-width="3"/>
  <path
    d="M64 28c17 0 31 12 34 28-13-2-24 2-34 13C54 58 43 54 30 56c3-16 17-28 34-28Z"
    fill="#DCEFE4"
    stroke="#507764"
    stroke-width="4"
    stroke-linejoin="round"
  />
  <path
    d="M40 79c8 14 16 20 24 20s16-6 24-20c-8 4-16 6-24 6s-16-2-24-6Z"
    fill="#FFF1E8"
    stroke="#507764"
    stroke-width="4"
    stroke-linejoin="round"
  />
  <path
    d="M64 36v47M47 50c8 5 13 11 17 19M81 50c-8 5-13 11-17 19"
    fill="none"
    stroke="#335847"
    stroke-width="5"
    stroke-linecap="round"
  />
  <circle cx="64" cy="34" r="6" fill="#335847"/>
  <path
    d="M48 70c5 4 10 6 16 6s11-2 16-6"
    fill="none"
    stroke="#9EBCAC"
    stroke-width="4"
    stroke-linecap="round"
  />
</svg>
